<?xml version="1.0" standalone="no"?>
<!DOCTYPE svg PUBLIC "-//W3C//DTD SVG 20010904//EN"
 "http://www.w3.org/TR/2001/REC-SVG-20010904/DTD/svg10.dtd">
<svg version="1.0" xmlns="http://www.w3.org/2000/svg"
 width="512.000000pt" height="512.000000pt" viewBox="0 0 512.000000 512.000000"
 preserveAspectRatio="xMidYMid meet">
<metadata>
Created by potrace 1.11, written by Peter Selinger 2001-2013
</metadata>
<g transform="translate(0.000000,512.000000) scale(0.100000,-0.100000)"
fill="#000000" stroke="none">
<path d="M2370 5114 c-528 -48 -994 -253 -1398 -613 l-73 -65 148 -148 c81
-81 151 -148 156 -148 4 0 36 26 71 59 250 233 589 398 957 467 132 25 439 30
584 9 401 -55 779 -234 1050 -496 l50 -49 150 150 149 150 -44 46 c-136 139
-362 295 -585 404 -229 113 -431 176 -680 215 -96 15 -443 27 -535 19z"/>
<path d="M2415 4260 c-182 -21 -354 -69 -504 -142 -107 -53 -267 -159 -346
-232 l-60 -55 149 -150 150 -150 50 43 c130 110 283 190 444 233 86 23 116 26
262 26 147 0 176 -3 265 -26 136 -36 299 -119 406 -206 l86 -69 149 149 148
148 -20 22 c-77 86 -295 230 -445 295 -221 94 -510 139 -734 114z"/>
<path d="M1840 3184 c-45 -20 -87 -59 -111 -106 -18 -36 -19 -78 -19 -1368 0
-1178 2 -1335 15 -1368 20 -47 50 -78 100 -105 40 -22 43 -22 735 -22 l695 0
45 25 c24 14 58 45 75 68 l30 44 3 1344 c2 1309 2 1345 -17 1382 -25 48 -66
87 -113 106 -55 24 -1385 23 -1438 0z m841 -430 c76 -23 128 -56 188 -119 159
-168 155 -422 -10 -588 -168 -168 -430 -167 -600 2 -127 128 -159 312 -84 478
26 59 101 144 157 179 96 61 239 81 349 48z"/>
</g>
</svg>
